HIERARCHY
ROOT Hips
{
	OFFSET 17.3776 98.0578 253.908
	CHANNELS 6 Xposition Yposition Zposition Zrotation Xrotation Yrotation
	JOINT Spine
	{
		OFFSET 0 11.1289 0
		CHANNELS 3 Zrotation Xrotation Yrotation
		JOINT Spine1
		{
			OFFSET 0 11.1289 0
			CHANNELS 3 Zrotation Xrotation Yrotation
			JOINT Spine2
			{
				OFFSET 0 11.1289 0
				CHANNELS 3 Zrotation Xrotation Yrotation
				JOINT Spine3
				{
					OFFSET 0 11.1289 0
					CHANNELS 3 Zrotation Xrotation Yrotation
					JOINT LeftShoulder
					{
						OFFSET 1.5 7.35679 0
						CHANNELS 3 Zrotation Xrotation Yrotation
						JOINT LeftArm
						{
							OFFSET 14.3451 0 0
							CHANNELS 3 Zrotation Xrotation Yrotation
							JOINT LeftForeArm
							{
								OFFSET 31.2638 0 0
								CHANNELS 3 Zrotation Xrotation Yrotation
								JOINT LeftHand
								{
									OFFSET 23.949 0 0
									CHANNELS 3 Zrotation Xrotation Yrotation
									End Site
									{
										OFFSET 10 0 0
									}
								}
							}
						}
					}
					JOINT RightShoulder
					{
						OFFSET -1.49999 7.35679 0
						CHANNELS 3 Zrotation Xrotation Yrotation
						JOINT RightArm
						{
							OFFSET -14.3451 0 0
							CHANNELS 3 Zrotation Xrotation Yrotation
							JOINT RightForeArm
							{
								OFFSET -31.2638 0 0
								CHANNELS 3 Zrotation Xrotation Yrotation
								JOINT RightHand
								{
									OFFSET -23.949 0 0
									CHANNELS 3 Zrotation Xrotation Yrotation
									End Site
									{
										OFFSET -10 0 0
									}
								}
							}
						}
					}
					JOINT Neck
					{
						OFFSET 0 11.1289 0
						CHANNELS 3 Zrotation Xrotation Yrotation
						JOINT Head
						{
							OFFSET 0 9.03419 0
							CHANNELS 3 Zrotation Xrotation Yrotation
							End Site
							{
								OFFSET 0 15 0
							}
						}
					}
				}
			}
		}
	}
	JOINT LeftUpLeg
	{
		OFFSET 14.9264 0 0
		CHANNELS 3 Zrotation Xrotation Yrotation
		JOINT LeftLeg
		{
			OFFSET 0 -46.3156 0
			CHANNELS 3 Zrotation Xrotation Yrotation
			JOINT LeftFoot
			{
				OFFSET 0 -37.7849 0
				CHANNELS 3 Zrotation Xrotation Yrotation
				JOINT LeftToeBase
				{
					OFFSET 0 -7.83404 13.569
					CHANNELS 3 Zrotation Xrotation Yrotation
					End Site
					{
						OFFSET 0 0 5
					}
				}
			}
		}
	}
	JOINT RightUpLeg
	{
		OFFSET -14.9264 0 0
		CHANNELS 3 Zrotation Xrotation Yrotation
		JOINT RightLeg
		{
			OFFSET 0 -46.3156 0
			CHANNELS 3 Zrotation Xrotation Yrotation
			JOINT RightFoot
			{
				OFFSET 0 -37.7849 0
				CHANNELS 3 Zrotation Xrotation Yrotation
				JOINT RightToeBase
				{
					OFFSET 0 -7.83404 13.569
					CHANNELS 3 Zrotation Xrotation Yrotation
					End Site
					{
						OFFSET 0 0 5
					}
				}
			}
		}
	}
}
MOTION
Frames: 13
Frame Time: 0.005
17.3776 98.0578 253.908 0.0863927 -3.54337 177.879 179.128 178.08 179.504 179.128 178.08 179.504 179.128 178.08 179.504 179.128 178.08 179.504 157.775 -179.812 177.491 138.934 161.47 174.399 174.135 178.756 163.067 176.498 -165.543 176.529 28.5853 3.21545 4.38212 27.542 33.0028 15.3897 2.59229 -8.20938 10.5575 172.377 -160.891 174.251 1.04499 1.42598 15.2588 178.84 177.682 178.539 1.6812 -15.1394 1.17236 177.573 159.982 -177.528 177.83 -171.83 -178.747 1.12944 -0.840817 1.17877 176.585 -162.944 175.329 1.01273 21.6173 1.03455 1.84796 -7.33346 -1.69428 1.17125 -1.41486 1.14923
17.3883 98.0611 253.885 0.123268 -3.52574 177.904 179.142 178.082 179.499 179.142 178.082 179.499 179.142 178.082 179.499 179.142 178.082 179.499 157.726 -179.82 177.491 138.954 161.49 174.41 174.142 178.791 163.064 176.388 -165.595 176.488 28.5444 3.22928 4.38218 27.5581 33.1366 15.396 2.55965 -8.31274 10.5452 172.314 -160.985 174.156 1.0082 1.5047 15.2033 178.84 177.701 178.544 1.71966 -15.121 1.15125 177.572 159.954 -177.528 177.826 -171.817 -178.759 1.13148 -0.939853 1.17881 176.633 -163.009 175.297 1.01377 21.5638 1.03417 1.76198 -7.28305 -1.68151 1.1712 -1.41247 1.14922
17.3807 98.0637 253.877 0.107774 -3.49755 177.908 179.137 178.068 179.495 179.137 178.068 179.495 179.137 178.068 179.495 179.137 178.068 179.495 157.712 -179.775 177.491 138.968 161.481 174.405 174.168 178.708 163.068 176.486 -165.676 176.596 28.5867 3.21297 4.38211 27.4995 33.0866 15.406 2.57915 -8.2522 10.5627 172.375 -160.985 174.257 1.04461 1.4403 15.2417 178.832 177.695 178.539 1.69164 -15.0683 1.13838 177.575 160.006 -177.529 177.853 -171.86 -178.771 1.12998 -0.867004 1.17878 176.605 -163.039 175.261 1.01268 21.62 1.03457 1.66866 -7.30062 -1.65598 1.16554 -1.12997 1.1491
17.3835 98.0655 253.875 0.103933 -3.50015 177.894 179.133 178.069 179.498 179.133 178.069 179.498 179.133 178.069 179.498 179.133 178.069 179.498 157.72 -179.77 177.491 138.974 161.484 174.398 174.167 178.711 163.067 176.484 -165.676 176.594 28.5874 3.21508 4.38212 27.5054 33.0888 15.4085 2.58302 -8.24904 10.5653 172.377 -160.986 174.257 1.04464 1.4417 15.2411 178.833 177.694 178.539 1.6921 -15.0728 1.14805 177.574 159.993 -177.529 177.84 -171.85 -178.764 1.12999 -0.867328 1.17878 176.606 -163.01 175.257 1.01278 21.6149 1.03453 1.72223 -7.28864 -1.65576 1.16558 -1.13214 1.1491
17.3909 98.0647 253.872 0.123423 -3.54579 177.883 179.141 178.092 179.498 179.141 178.092 179.498 179.141 178.092 179.498 179.141 178.092 179.498 157.723 -179.801 177.491 138.938 161.471 174.414 174.155 178.842 163.094 176.521 -165.839 176.6 28.5473 3.20922 4.38209 27.5796 33.1156 15.3608 2.58423 -8.2298 10.5794 172.34 -161.043 174.197 1.02324 1.49205 15.2696 178.849 177.7 178.552 1.73119 -15.1354 1.18086 177.571 159.936 -177.528 177.801 -171.833 -178.812 1.1292 -0.829023 1.17877 176.642 -162.983 175.346 1.01354 21.5755 1.03425 1.82101 -7.28198 -1.71323 1.16747 -1.22644 1.14914
17.3838 98.0687 253.861 0.0856039 -3.49853 177.874 179.123 178.072 179.5 179.123 178.072 179.5 179.123 178.072 179.5 179.123 178.072 179.5 157.748 -179.772 177.491 138.963 161.508 174.393 174.169 178.707 163.072 176.627 -165.82 176.669 28.5774 3.14904 4.38184 27.5702 33.1606 15.3756 2.5536 -8.11604 10.5712 172.339 -160.901 174.108 1.06723 1.4498 15.1508 178.849 177.697 178.552 1.6886 -15.0419 1.20077 177.576 160.043 -177.529 177.746 -171.896 -178.79 1.13186 -0.958131 1.17881 176.59 -163.029 175.301 1.01335 21.5855 1.03432 1.7864 -7.27232 -1.67173 1.17357 -1.53031 1.14929
17.3861 98.0712 253.848 0.0992421 -3.47278 177.875 179.126 178.063 179.504 179.126 178.063 179.504 179.126 178.063 179.504 179.126 178.063 179.504 157.747 -179.774 177.491 138.982 161.438 174.338 174.205 178.637 163.103 176.19 -165.244 176.268 28.5873 3.14256 4.38181 27.5418 33.1687 15.3818 2.55879 -8.15689 10.5408 172.427 -161.031 174.297 1.08298 1.42686 15.2385 178.844 177.689 178.546 1.68633 -15.0175 1.11795 177.575 160.013 -177.529 177.822 -171.836 -178.715 1.13126 -0.928901 1.1788 176.599 -163.074 175.355 1.01339 21.5835 1.03431 1.89254 -7.31736 -1.73085 1.16758 -1.23169 1.14914
17.3872 98.0753 253.838 0.0963812 -3.47897 177.878 179.126 178.071 179.5 179.126 178.071 179.5 179.126 178.071 179.5 179.126 178.071 179.5 157.741 -179.793 177.491 138.964 161.511 174.355 174.184 178.734 163.108 176.469 -165.663 176.539 28.5973 3.19504 4.38203 27.5225 33.1518 15.3937 2.54885 -8.12273 10.5757 172.387 -160.917 174.149 1.07178 1.47615 15.2172 178.849 177.702 178.554 1.69614 -15.0277 1.11787 177.574 159.994 -177.529 177.697 -171.814 -178.678 1.12862 -0.800802 1.17876 176.604 -163.086 175.328 1.01434 21.5343 1.03396 1.8056 -7.27428 -1.72267 1.17248 -1.4763 1.14926
17.3902 98.0731 253.84 0.0960773 -3.52403 177.855 179.125 178.091 179.501 179.125 178.091 179.501 179.125 178.091 179.501 179.125 178.091 179.501 157.744 -179.801 177.491 138.956 161.573 174.392 174.148 178.724 163.092 176.364 -165.548 176.402 28.5911 3.21694 4.38213 27.5408 33.1793 15.38 2.56123 -8.26665 10.5529 172.419 -161.036 174.259 1.06154 1.49282 15.2223 178.848 177.702 178.553 1.7074 -15.0807 1.19991 177.573 159.968 -177.528 177.815 -171.804 -178.746 1.12774 -0.758271 1.17875 176.612 -163.015 175.355 1.01318 21.5941 1.03439 1.78385 -7.27942 -1.72238 1.17047 -1.37567 1.14921
17.3877 98.072 253.835 0.0924992 -3.53301 177.872 179.124 178.095 179.498 179.124 178.095 179.498 179.124 178.095 179.498 179.124 178.095 179.498 157.742 -179.809 177.491 138.961 161.555 174.383 174.148 178.712 163.087 176.355 -165.55 176.404 28.5681 3.23717 4.38221 27.5471 33.196 15.3845 2.5687 -8.24841 10.573 172.419 -161.036 174.257 1.0746 1.48903 15.228 178.851 177.705 178.557 1.69106 -15.0821 1.16445 177.574 159.99 -177.528 177.786 -171.823 -178.755 1.12782 -0.76219 1.17875 176.601 -163.044 175.351 1.01407 21.5484 1.03406 1.70075 -7.21935 -1.72673 1.17045 -1.37497 1.14921
17.3909 98.0774 253.832 0.0971809 -3.54872 177.832 179.125 178.105 179.507 179.125 178.105 179.507 179.125 178.105 179.507 179.125 178.105 179.507 157.747 -179.819 177.491 138.958 161.549 174.387 174.152 178.708 163.098 176.362 -165.549 176.412 28.5605 3.23894 4.38222 27.5579 33.2081 15.3732 2.56735 -8.23302 10.5711 172.413 -161.038 174.256 1.07457 1.49201 15.2277 178.851 177.704 178.557 1.7113 -15.095 1.19208 177.573 159.979 -177.528 177.781 -171.813 -178.724 1.12789 -0.765374 1.17875 176.623 -163.012 175.361 1.01465 21.5182 1.03384 1.85686 -7.23145 -1.69251 1.17044 -1.37452 1.14921
17.3843 98.0775 253.826 0.0735319 -3.57837 177.843 179.119 178.123 179.499 179.119 178.123 179.499 179.119 178.123 179.499 179.119 178.123 179.499 157.737 -179.892 177.491 138.978 161.6 174.385 174.126 178.726 163.053 176.532 -165.711 176.607 28.5729 3.24683 4.38226 27.5835 33.1979 15.332 2.57016 -8.16869 10.5846 172.353 -161.034 174.242 1.05699 1.55622 15.1959 178.856 177.723 178.565 1.67807 -15.0893 1.13843 177.577 160.053 -177.529 177.722 -171.819 -178.682 1.12735 -0.739065 1.17874 176.582 -162.976 175.302 1.01404 21.5497 1.03407 1.858 -7.25214 -1.61691 1.17194 -1.44939 1.14924
17.3843 98.0775 253.826 0.0735319 -3.57837 177.843 179.119 178.123 179.499 179.119 178.123 179.499 179.119 178.123 179.499 179.119 178.123 179.499 157.737 -179.892 177.491 138.978 161.6 174.385 174.126 178.726 163.053 176.532 -165.711 176.607 28.5729 3.24683 4.38226 27.5835 33.1979 15.332 2.57016 -8.16869 10.5846 172.353 -161.034 174.242 1.05699 1.55622 15.1959 178.856 177.723 178.565 1.67807 -15.0893 1.13843 177.577 160.053 -177.529 177.722 -171.819 -178.682 1.12735 -0.739065 1.17874 176.582 -162.976 175.302 1.01404 21.5497 1.03407 1.858 -7.25214 -1.61691 1.17194 -1.44939 1.14924
